<svg id="Layer_1" enable-background="new 0 0 512 512" height="512" viewBox="0 0 512 512" width="512" xmlns="http://www.w3.org/2000/svg"><path d="m412.769 275.463c34.412-55.317 21.601-128.466-30.572-168.776-10.225-61.313-63.264-106.687-126.222-106.687-74.881 0-134.312 64.464-127.469 139.653-82.832 65.595-54.353 196.958 46.186 223.97 7.125 13.49 16.67 25.674 28.074 35.873-4.315 27.88-11.013 55.839-21.229 80.504h-53.562c-8.837 0-16 7.164-16 16s7.163 16 16 16h256c8.837 0 16-7.164 16-16s-7.163-16-16-16h-55.038c-4.398-8.185-11.735-24.484-17.321-50.187 70.313-13.087 117.532-82.547 101.153-154.35zm-196.927 204.537c36.351-100.679 24.625-235.343 24.066-241.455-.117-1.276.924 4.169-16.244-81.683-1.733-8.664-10.153-14.284-18.827-12.552-8.665 1.733-14.284 10.163-12.552 18.827 17.379 86.908 16.12 74.722 17.199 103.744l-22.196-22.196c-6.248-6.248-16.379-6.248-22.627 0-6.249 6.249-6.249 16.379 0 22.628l45.213 45.213c-.268 13.663-.916 28.588-2.16 44.132-2.812-4.27-5.288-8.757-7.384-13.424-2.115-4.71-6.373-8.11-11.435-9.13-44.571-8.984-76.921-48.561-76.921-94.105 0-32.038 15.9-61.847 42.532-79.739 5.227-3.511 7.908-9.761 6.851-15.967-10.081-59.253 35.742-112.293 94.618-112.293 49.041 0 90.056 36.696 95.405 85.358.509 4.63 3.01 8.808 6.85 11.443 44.435 30.499 54.857 91.162 24.199 134.533-2.816 3.984-3.661 9.035-2.294 13.718 15.819 54.196-18.181 110.459-73.663 121.17-2.665-23.488-2.734-43.393-2.293-66.759l36.856-12.285c8.383-2.794 12.914-11.855 10.119-20.238-2.794-8.383-11.856-12.915-20.238-10.119l-25.679 8.56c3.736-88.961 14.501-182.404 14.632-183.534 1.02-8.777-5.27-16.72-14.047-17.74-8.761-1.013-16.72 5.268-17.739 14.046-.041.352-1.098 9.527-2.652 24.675l-18.142-18.142c-6.248-6.249-16.379-6.249-22.627 0-6.249 6.248-6.249 16.379 0 22.627l36.803 36.803c-3.538 39.45-7.456 91.171-8.907 139.598-.684 2.453-.787 5.091-.211 7.708-1.281 52.126.562 106.726 21.256 156.577h-77.761z" fill="#123123"/></svg>